<?xml version="1.0" standalone="no"?>
<!DOCTYPE svg PUBLIC "-//W3C//DTD SVG 20010904//EN"
 "http://www.w3.org/TR/2001/REC-SVG-20010904/DTD/svg10.dtd">
<svg version="1.0" xmlns="http://www.w3.org/2000/svg"
 width="400.000000pt" height="400.000000pt" viewBox="0 0 400.000000 400.000000"
 preserveAspectRatio="xMidYMid meet">
<metadata>
Created by potrace 1.14, written by Peter Selinger 2001-2017
</metadata>
<g transform="translate(0.000000,400.000000) scale(0.100000,-0.100000)"
fill="#000000" stroke="none">
<path d="M1292 2903 c-18 -9 -50 -36 -70 -61 l-37 -45 0 -797 0 -797 37 -45
c66 -81 45 -78 578 -78 522 0 508 -2 569 65 17 19 35 53 41 77 14 61 13 1491
-1 1557 -8 38 -20 58 -50 86 -22 20 -51 40 -65 45 -15 6 -221 10 -497 10 -416
0 -476 -2 -505 -17z m1014 -87 l39 -34 0 -782 0 -782 -39 -34 -39 -34 -467 0
-467 0 -39 34 -39 34 0 782 0 782 39 34 39 34 467 0 467 0 39 -34z"/>
<path d="M1580 1355 c-6 -8 -10 -22 -8 -32 3 -17 20 -18 228 -18 208 0 225 1
228 18 9 43 -9 47 -228 47 -169 0 -210 -3 -220 -15z"/>
<path d="M2539 2892 l-34 -30 0 -795 c0 -743 1 -796 18 -814 9 -11 17 -23 17
-27 0 -4 8 -18 18 -31 9 -12 24 -33 32 -45 34 -50 52 -70 65 -70 8 0 29 20 47
45 18 24 49 66 68 92 l35 48 0 800 0 800 -25 25 c-22 22 -35 25 -116 28 -90 4
-92 3 -125 -26z m189 -54 c7 -7 12 -27 12 -45 l0 -33 -85 0 -85 0 0 33 c0 18
5 38 12 45 16 16 130 16 146 0z m7 -778 l0 -625 -80 0 -80 0 -3 615 c-1 338 0
621 3 628 3 9 26 12 82 10 l78 -3 0 -625z m3 -727 c3 -22 1 -23 -82 -23 -77 0
-86 2 -86 18 0 30 10 33 90 30 69 -3 75 -5 78 -25z m-58 -102 c0 -37 -32 -55
-44 -25 -10 27 -7 34 19 34 14 0 25 -4 25 -9z"/>
</g>
</svg>
